<?xml version="1.0" standalone="no"?>
<!DOCTYPE svg PUBLIC "-//W3C//DTD SVG 20010904//EN"
 "http://www.w3.org/TR/2001/REC-SVG-20010904/DTD/svg10.dtd">
<svg version="1.0" xmlns="http://www.w3.org/2000/svg"
 width="774.000000pt" height="980.000000pt" viewBox="0 0 774.000000 980.000000"
 preserveAspectRatio="xMidYMid meet">

<g transform="translate(0.000000,980.000000) scale(0.100000,-0.100000)"
fill="#000000" stroke="none">
<path d="M3689 9780 c-91 -19 -227 -77 -302 -129 -221 -152 -380 -421 -433
-732 l-18 -106 -75 -28 c-113 -41 -326 -145 -459 -223 -755 -448 -1328 -1259
-1467 -2077 -33 -195 -35 -290 -35 -1788 l0 -1507 -441 -775 c-474 -835 -468
-822 -448 -930 18 -97 111 -192 209 -214 29 -7 418 -11 1087 -11 l1042 0 11
-55 c6 -31 26 -100 45 -154 257 -764 1057 -1199 1839 -1002 542 137 973 569
1111 1116 l23 90 1073 5 c1067 5 1074 5 1119 26 164 77 213 266 109 418 -22
33 -221 377 -442 765 l-402 706 -5 1565 c-6 1711 -3 1603 -65 1881 -211 940
-966 1806 -1886 2160 l-87 34 -11 83 c-24 169 -98 366 -190 501 -209 307 -557
454 -902 381z m298 -565 c70 -32 139 -105 179 -189 19 -38 32 -71 31 -72 -2
-2 -43 1 -92 6 -109 12 -369 12 -485 0 -47 -4 -87 -6 -88 -5 -10 9 67 143 107
185 93 99 233 129 348 75z m188 -822 c388 -51 759 -205 1103 -459 141 -104
405 -365 509 -505 234 -313 389 -657 459 -1019 17 -89 19 -197 24 -1725 5
-1629 5 -1630 26 -1675 12 -25 167 -303 347 -617 l325 -573 -3105 0 -3105 0
25 43 c94 161 650 1143 660 1165 9 21 13 414 18 1667 6 1811 1 1674 70 1920
111 392 336 770 639 1075 302 303 668 522 1061 635 311 90 614 112 944 68z
m619 -7175 c-105 -298 -349 -529 -661 -625 -81 -25 -102 -27 -268 -27 -161 -1
-188 1 -260 23 -233 68 -431 212 -562 409 -49 73 -97 172 -118 240 l-6 22 945
0 945 0 -15 -42z"/>
</g>
</svg>
